# xmcd
#
# Track frame offsets: 
#        150
#        13578
#        25818
#        37851
#        52881
#        66048
#        83985
#        95829
#        104892
#        116610
#        128742
#        140469
#        154716
#        167613
#        180906
#
# Disc length: 2547 seconds
#
# Revision: 0
# Processed by: cddbd v1.5.2PL0 Copyright (c) Steve Scherf et al.
# Submitted via: ExactAudioCopyFreeDBPlugin 1.0
#
DISCID=bc09f10f
DTITLE=Smiley Bates - Lullabys and Legends
DYEAR=2010
DGENRE=Country
TTITLE0=Sea Shores Of Old Mexico
TTITLE1=A Girl I Used To Know
TTITLE2=The Restless One
TTITLE3=I Haven't Seen Mary In Years
TTITLE4=Don't Make Me Go Back To School
TTITLE5=I Dreamed About Mama Last Night
TTITLE6=Tiny Broken Heart
TTITLE7=Don't Let Your Teardrops Show
TTITLE8=Don't Drink Anymore Whiskey
TTITLE9=Lovin' On Back Street
TTITLE10=Slow Rider
TTITLE11=I'm Doing This For Daddy
TTITLE12=My Favourite Lies
TTITLE13=I'm Wasting Good Paper
TTITLE14=I Haven't Got The Right
EXTD=
EXTT0=
EXTT1=
EXTT2=
EXTT3=
EXTT4=
EXTT5=
EXTT6=
EXTT7=
EXTT8=
EXTT9=
EXTT10=
EXTT11=
EXTT12=
EXTT13=
EXTT14=
PLAYORDER=
